<?xml version="1.0" encoding="UTF-8"?>
<svg version="1.1" xmlns="http://www.w3.org/2000/svg" width="120" height="120">
<path d="M0 0 C9.9 0 19.8 0 30 0 C30 1.65 30 3.3 30 5 C34.95 5 39.9 5 45 5 C45 8.3 45 11.6 45 15 C48.3 15 51.6 15 55 15 C55 19.95 55 24.9 55 30 C56.65 30 58.3 30 60 30 C60 39.9 60 49.8 60 60 C58.35 60 56.7 60 55 60 C55 64.95 55 69.9 55 75 C51.7 75 48.4 75 45 75 C45 79.95 45 84.9 45 90 C43.35 90 41.7 90 40 90 C40 92.64 40 95.28 40 98 C23.5 98 7 98 -10 98 C-10 95.36 -10 92.72 -10 90 C-11.65 90 -13.3 90 -15 90 C-15 85.05 -15 80.1 -15 75 C-18.3 75 -21.6 75 -25 75 C-25 70.05 -25 65.1 -25 60 C-26.65 60 -28.3 60 -30 60 C-30 50.1 -30 40.2 -30 30 C-28.35 30 -26.7 30 -25 30 C-25 25.05 -25 20.1 -25 15 C-21.7 15 -18.4 15 -15 15 C-15 11.7 -15 8.4 -15 5 C-10.05 5 -5.1 5 0 5 C0 3.35 0 1.7 0 0 Z " fill="#78B9FE" transform="translate(45,15)"/>
<path d="M0 0 C9.9 0 19.8 0 30 0 C30 1.65 30 3.3 30 5 C34.95 5 39.9 5 45 5 C45 8.3 45 11.6 45 15 C35.1 15 25.2 15 15 15 C15 17.31 15 19.62 15 22 C10.05 22 5.1 22 0 22 C0 24.64 0 27.28 0 30 C-2.64 30 -5.28 30 -8 30 C-8 34.95 -8 39.9 -8 45 C-10.31 45 -12.62 45 -15 45 C-15 54.9 -15 64.8 -15 75 C-18.3 75 -21.6 75 -25 75 C-25 70.05 -25 65.1 -25 60 C-26.65 60 -28.3 60 -30 60 C-30 50.1 -30 40.2 -30 30 C-28.35 30 -26.7 30 -25 30 C-25 25.05 -25 20.1 -25 15 C-21.7 15 -18.4 15 -15 15 C-15 11.7 -15 8.4 -15 5 C-10.05 5 -5.1 5 0 5 C0 3.35 0 1.7 0 0 Z " fill="#75F2FA" transform="translate(45,15)"/>
<path d="M0 0 C4.95 0 9.9 0 15 0 C15 2.64 15 5.28 15 8 C17.31 8 19.62 8 22 8 C22 12.95 22 17.9 22 23 C19.69 23 17.38 23 15 23 C15 25.64 15 28.28 15 31 C10.05 31 5.1 31 0 31 C0 33.31 0 35.62 0 38 C2.31 38 4.62 38 7 38 C7 40.31 7 42.62 7 45 C14.59 45 22.18 45 30 45 C30 49.95 30 54.9 30 60 C20.1 60 10.2 60 0 60 C0 57.69 0 55.38 0 53 C-4.95 53 -9.9 53 -15 53 C-15 43.1 -15 33.2 -15 23 C-12.69 23 -10.38 23 -8 23 C-8 18.05 -8 13.1 -8 8 C-5.36 8 -2.72 8 0 8 C0 5.36 0 2.72 0 0 Z " fill="#78B9FE" transform="translate(45,37)"/>
<path d="M0 0 C4.95 0 9.9 0 15 0 C15 2.31 15 4.62 15 7 C24.9 7 34.8 7 45 7 C45 4.69 45 2.38 45 0 C49.95 0 54.9 0 60 0 C60 4.95 60 9.9 60 15 C58.35 15 56.7 15 55 15 C55 17.64 55 20.28 55 23 C38.5 23 22 23 5 23 C5 20.36 5 17.72 5 15 C3.35 15 1.7 15 0 15 C0 10.05 0 5.1 0 0 Z " fill="#09329A" transform="translate(30,90)"/>
<path d="M0 0 C2.31 0 4.62 0 7 0 C7 2.31 7 4.62 7 7 C9.31 7 11.62 7 14 7 C14 14.59 14 22.18 14 30 C11.69 30 9.38 30 7 30 C7 32.31 7 34.62 7 37 C-0.59 37 -8.18 37 -16 37 C-16 34.69 -16 32.38 -16 30 C-18.31 30 -20.62 30 -23 30 C-23 27.69 -23 25.38 -23 23 C-18.05 23 -13.1 23 -8 23 C-8 20.36 -8 17.72 -8 15 C-5.36 15 -2.72 15 0 15 C0 10.05 0 5.1 0 0 Z " fill="#6170FD" transform="translate(68,45)"/>
<path d="M0 0 C4.95 0 9.9 0 15 0 C15 2.64 15 5.28 15 8 C17.31 8 19.62 8 22 8 C22 12.95 22 17.9 22 23 C19.69 23 17.38 23 15 23 C15 25.31 15 27.62 15 30 C10.05 30 5.1 30 0 30 C0 27.69 0 25.38 0 23 C-2.64 23 -5.28 23 -8 23 C-8 18.05 -8 13.1 -8 8 C-5.36 8 -2.72 8 0 8 C0 5.36 0 2.72 0 0 Z " fill="#FBFEFF" transform="translate(45,37)"/>
<path d="M0 0 C3.3 0 6.6 0 10 0 C10 4.95 10 9.9 10 15 C11.65 15 13.3 15 15 15 C15 24.9 15 34.8 15 45 C13.35 45 11.7 45 10 45 C10 49.95 10 54.9 10 60 C6.7 60 3.4 60 0 60 C0 55.05 0 50.1 0 45 C2.31 45 4.62 45 7 45 C7 35.1 7 25.2 7 15 C4.69 15 2.38 15 0 15 C0 10.05 0 5.1 0 0 Z " fill="#212A3A" transform="translate(90,30)"/>
<path d="M0 0 C9.9 0 19.8 0 30 0 C30 1.65 30 3.3 30 5 C34.95 5 39.9 5 45 5 C45 8.3 45 11.6 45 15 C40.05 15 35.1 15 30 15 C30 12.69 30 10.38 30 8 C20.1 8 10.2 8 0 8 C0 10.31 0 12.62 0 15 C-4.95 15 -9.9 15 -15 15 C-15 11.7 -15 8.4 -15 5 C-10.05 5 -5.1 5 0 5 C0 3.35 0 1.7 0 0 Z " fill="#212A3A" transform="translate(45,15)"/>
<path d="M0 0 C4.95 0 9.9 0 15 0 C15 2.31 15 4.62 15 7 C24.9 7 34.8 7 45 7 C45 4.69 45 2.38 45 0 C49.95 0 54.9 0 60 0 C60 2.64 60 5.28 60 8 C55.05 8 50.1 8 45 8 C45 10.31 45 12.62 45 15 C35.1 15 25.2 15 15 15 C15 12.69 15 10.38 15 8 C10.05 8 5.1 8 0 8 C0 5.36 0 2.72 0 0 Z " fill="#212B3D" transform="translate(30,90)"/>
<path d="M0 0 C0.33 0 0.66 0 1 0 C1 4.95 1 9.9 1 15 C2.65 15 4.3 15 6 15 C6 24.9 6 34.8 6 45 C4.35 45 2.7 45 1 45 C1 49.95 1 54.9 1 60 C0.67 60 0.34 60 0 60 C-1.94300616 40.22297302 -1.94300616 19.77702698 0 0 Z " fill="#171222" transform="translate(99,30)"/>
<path d="M0 0 C0.33 0 0.66 0 1 0 C2.94300616 19.77702698 2.94300616 40.22297302 1 60 C0.67 60 0.34 60 0 60 C0 55.05 0 50.1 0 45 C-1.65 45 -3.3 45 -5 45 C-5 35.1 -5 25.2 -5 15 C-3.35 15 -1.7 15 0 15 C0 10.05 0 5.1 0 0 Z " fill="#171222" transform="translate(20,30)"/>
<path d="M0 0 C9.9 0 19.8 0 30 0 C30 1.65 30 3.3 30 5 C34.95 5 39.9 5 45 5 C45 5.33 45 5.66 45 6 C25.22297302 7.94300616 4.77702698 7.94300616 -15 6 C-15 5.67 -15 5.34 -15 5 C-10.05 5 -5.1 5 0 5 C0 3.35 0 1.7 0 0 Z " fill="#171222" transform="translate(45,15)"/>
<path d="M0 0 C9.9 0 19.8 0 30 0 C30 2.31 30 4.62 30 7 C20.1 7 10.2 7 0 7 C0 4.69 0 2.38 0 0 Z " fill="#161122" transform="translate(45,98)"/>
<path d="M0 0 C9.9 0 19.8 0 30 0 C30 2.31 30 4.62 30 7 C20.1 7 10.2 7 0 7 C0 4.69 0 2.38 0 0 Z " fill="#78F7FE" transform="translate(45,90)"/>
<path d="M0 0 C2.31 0 4.62 0 7 0 C7 9.9 7 19.8 7 30 C4.69 30 2.38 30 0 30 C0 20.1 0 10.2 0 0 Z " fill="#78F7FE" transform="translate(90,45)"/>
<path d="M0 0 C2.64 0 5.28 0 8 0 C8 2.31 8 4.62 8 7 C10.31 7 12.62 7 15 7 C15 9.64 15 12.28 15 15 C10.05 15 5.1 15 0 15 C0 10.05 0 5.1 0 0 Z " fill="#77F8FF" transform="translate(30,75)"/>
<path d="M0 0 C4.95 0 9.9 0 15 0 C15 4.95 15 9.9 15 15 C12.36 15 9.72 15 7 15 C7 12.69 7 10.38 7 8 C4.69 8 2.38 8 0 8 C0 5.36 0 2.72 0 0 Z " fill="#77F8FF" transform="translate(75,30)"/>
<path d="M0 0 C4.95 0 9.9 0 15 0 C15 2.64 15 5.28 15 8 C10.05 8 5.1 8 0 8 C0 5.36 0 2.72 0 0 Z " fill="#171528" transform="translate(75,90)"/>
<path d="M0 0 C2.64 0 5.28 0 8 0 C8 4.95 8 9.9 8 15 C5.36 15 2.72 15 0 15 C0 10.05 0 5.1 0 0 Z " fill="#181425" transform="translate(90,75)"/>
<path d="M0 0 C2.64 0 5.28 0 8 0 C8 4.95 8 9.9 8 15 C5.36 15 2.72 15 0 15 C0 10.05 0 5.1 0 0 Z " fill="#181425" transform="translate(22,75)"/>
<path d="M0 0 C2.64 0 5.28 0 8 0 C8 4.95 8 9.9 8 15 C5.36 15 2.72 15 0 15 C0 10.05 0 5.1 0 0 Z " fill="#181425" transform="translate(22,30)"/>
<path d="M0 0 C4.95 0 9.9 0 15 0 C15 2.64 15 5.28 15 8 C10.05 8 5.1 8 0 8 C0 5.36 0 2.72 0 0 Z " fill="#181425" transform="translate(75,22)"/>
<path d="M0 0 C2.31 0 4.62 0 7 0 C7 2.31 7 4.62 7 7 C4.69 7 2.38 7 0 7 C0 4.69 0 2.38 0 0 Z " fill="#77F8FF" transform="translate(75,83)"/>
<path d="M0 0 C2.31 0 4.62 0 7 0 C7 2.31 7 4.62 7 7 C4.69 7 2.38 7 0 7 C0 4.69 0 2.38 0 0 Z " fill="#77F8FF" transform="translate(38,83)"/>
<path d="M0 0 C2.31 0 4.62 0 7 0 C7 2.31 7 4.62 7 7 C4.69 7 2.38 7 0 7 C0 4.69 0 2.38 0 0 Z " fill="#77B8FE" transform="translate(83,83)"/>
<path d="M0 0 C2.31 0 4.62 0 7 0 C7 2.31 7 4.62 7 7 C4.69 7 2.38 7 0 7 C0 4.69 0 2.38 0 0 Z " fill="#77B8FE" transform="translate(30,83)"/>
<path d="M0 0 C2.31 0 4.62 0 7 0 C7 2.31 7 4.62 7 7 C4.69 7 2.38 7 0 7 C0 4.69 0 2.38 0 0 Z " fill="#77F8FF" transform="translate(83,75)"/>
<path d="M0 0 C2.31 0 4.62 0 7 0 C7 2.31 7 4.62 7 7 C4.69 7 2.38 7 0 7 C0 4.69 0 2.38 0 0 Z " fill="#77F8FF" transform="translate(38,60)"/>
<path d="M0 0 C2.31 0 4.62 0 7 0 C7 2.31 7 4.62 7 7 C4.69 7 2.38 7 0 7 C0 4.69 0 2.38 0 0 Z " fill="#77F8FF" transform="translate(83,38)"/>
<path d="M0 0 C2.31 0 4.62 0 7 0 C7 2.31 7 4.62 7 7 C4.69 7 2.38 7 0 7 C0 4.69 0 2.38 0 0 Z " fill="#77F8FF" transform="translate(60,38)"/>
<path d="M0 0 C2.31 0 4.62 0 7 0 C7 2.31 7 4.62 7 7 C4.69 7 2.38 7 0 7 C0 4.69 0 2.38 0 0 Z " fill="#77B8FE" transform="translate(83,30)"/>
<path d="M0 0 C2.31 0 4.62 0 7 0 C7 2.31 7 4.62 7 7 C4.69 7 2.38 7 0 7 C0 4.69 0 2.38 0 0 Z " fill="#77B8FE" transform="translate(30,30)"/>
<path d="M0 0 C15.18 0 30.36 0 46 0 C46 0.33 46 0.66 46 1 C30.82 1 15.64 1 0 1 C0 0.67 0 0.34 0 0 Z " fill="#0A3299" transform="translate(37,114)"/>
<path d="M0 0 C0.33 0 0.66 0 1 0 C1 2.31 1 4.62 1 7 C3.31 7 5.62 7 8 7 C8 7.33 8 7.66 8 8 C5.69 8 3.38 8 1 8 C1 10.31 1 12.62 1 15 C0.67 15 0.34 15 0 15 C0 12.69 0 10.38 0 8 C-2.31 8 -4.62 8 -7 8 C-7 7.67 -7 7.34 -7 7 C-4.69 7 -2.38 7 0 7 C0 4.69 0 2.38 0 0 Z " fill="#77D8FF" transform="translate(82,75)"/>
<path d="M0 0 C0.33 0 0.66 0 1 0 C1 2.31 1 4.62 1 7 C3.31 7 5.62 7 8 7 C8 7.33 8 7.66 8 8 C5.69 8 3.38 8 1 8 C1 10.31 1 12.62 1 15 C0.67 15 0.34 15 0 15 C0 12.69 0 10.38 0 8 C-2.31 8 -4.62 8 -7 8 C-7 7.67 -7 7.34 -7 7 C-4.69 7 -2.38 7 0 7 C0 4.69 0 2.38 0 0 Z " fill="#77D8FF" transform="translate(37,75)"/>
<path d="M0 0 C0.33 0 0.66 0 1 0 C1 2.31 1 4.62 1 7 C3.31 7 5.62 7 8 7 C8 7.33 8 7.66 8 8 C5.69 8 3.38 8 1 8 C1 10.31 1 12.62 1 15 C0.67 15 0.34 15 0 15 C0 12.69 0 10.38 0 8 C-2.31 8 -4.62 8 -7 8 C-7 7.67 -7 7.34 -7 7 C-4.69 7 -2.38 7 0 7 C0 4.69 0 2.38 0 0 Z " fill="#77D8FF" transform="translate(82,30)"/>
<path d="" fill="#0A3299" transform="translate(0,0)"/>
<path d="" fill="#0A3299" transform="translate(0,0)"/>
<path d="" fill="#181425" transform="translate(0,0)"/>
<path d="" fill="#181425" transform="translate(0,0)"/>
<path d="" fill="#181425" transform="translate(0,0)"/>
<path d="" fill="#181425" transform="translate(0,0)"/>
</svg>
